<svg width="18" height="18" viewBox="0 0 18 18" fill="none" xmlns="http://www.w3.org/2000/svg">
<path d="M14.8301 0.87207H2.6579C2.02551 0.87207 1.41901 1.12329 0.971834 1.57046C0.524657 2.01765 0.273438 2.62414 0.273438 3.25654V15.4288C0.273438 16.0612 0.524657 16.6677 0.971834 17.1148C1.41901 17.562 2.02551 17.8132 2.6579 17.8132H8.19767V11.6297H6.10332V9.21772H8.19767V7.44101C8.19767 6.43407 8.47614 5.6516 9.03308 5.09572C9.59002 4.53878 10.345 4.25925 11.2989 4.25925C12.254 4.25925 12.8724 4.29631 13.1551 4.36619V6.51348H11.8824C11.4228 6.51348 11.1094 6.6109 10.9411 6.80572C10.7738 6.99948 10.6901 7.29172 10.6901 7.68031V9.21772H13.0756L12.758 11.6297H10.6901V17.8132H14.8301C15.4626 17.8132 16.069 17.562 16.5162 17.1148C16.9634 16.6677 17.2146 16.0612 17.2146 15.4288V3.25654C17.2146 2.62414 16.9634 2.01765 16.5162 1.57046C16.069 1.12329 15.4626 0.87207 14.8301 0.87207Z" fill="white"/>
</svg>
