<svg width="17" height="18" viewBox="0 0 17 18" fill="none" xmlns="http://www.w3.org/2000/svg">
<path d="M12.0215 17.25H4.52148C3.32801 17.25 2.18342 16.7759 1.3395 15.932C0.49559 15.0881 0.0214844 13.9435 0.0214844 12.75V5.25C0.0214844 4.05653 0.49559 2.91193 1.3395 2.06802C2.18342 1.22411 3.32801 0.75 4.52148 0.75H12.0215C13.215 0.75 14.3596 1.22411 15.2035 2.06802C16.0474 2.91193 16.5215 4.05653 16.5215 5.25V12.75C16.5215 13.9435 16.0474 15.0881 15.2035 15.932C14.3596 16.7759 13.215 17.25 12.0215 17.25ZM4.52148 2.25C3.72583 2.25 2.96277 2.56607 2.40016 3.12868C1.83755 3.69129 1.52148 4.45435 1.52148 5.25V12.75C1.52148 13.5456 1.83755 14.3087 2.40016 14.8713C2.96277 15.4339 3.72583 15.75 4.52148 15.75H12.0215C12.8171 15.75 13.5802 15.4339 14.1428 14.8713C14.7054 14.3087 15.0215 13.5456 15.0215 12.75V5.25C15.0215 4.45435 14.7054 3.69129 14.1428 3.12868C13.5802 2.56607 12.8171 2.25 12.0215 2.25H4.52148Z" fill="white"/>
<path d="M8.27149 13.5C7.38147 13.5 6.51144 13.2361 5.77142 12.7416C5.0314 12.2471 4.45462 11.5443 4.11403 10.7221C3.77343 9.89981 3.68432 8.99501 3.85795 8.1221C4.03159 7.24918 4.46017 6.44736 5.08951 5.81802C5.71884 5.18869 6.52067 4.7601 7.39358 4.58647C8.26649 4.41283 9.17129 4.50195 9.99356 4.84254C10.8158 5.18314 11.5186 5.75991 12.0131 6.49994C12.5076 7.23996 12.7715 8.10999 12.7715 9C12.7715 10.1935 12.2974 11.3381 11.4535 12.182C10.6096 13.0259 9.46496 13.5 8.27149 13.5ZM8.27149 6C7.67814 6 7.09812 6.17595 6.60478 6.50559C6.11143 6.83524 5.72691 7.30377 5.49985 7.85195C5.27278 8.40013 5.21337 9.00333 5.32913 9.58527C5.44489 10.1672 5.73061 10.7018 6.15017 11.1213C6.56972 11.5409 7.10427 11.8266 7.68622 11.9424C8.26816 12.0581 8.87136 11.9987 9.41954 11.7716C9.96772 11.5446 10.4363 11.1601 10.7659 10.6667C11.0955 10.1734 11.2715 9.59335 11.2715 9C11.2715 8.20435 10.9554 7.44129 10.3928 6.87868C9.8302 6.31607 9.06714 6 8.27149 6Z" fill="white"/>
<path d="M12.7715 4.5C13.1857 4.5 13.5215 4.16421 13.5215 3.75C13.5215 3.33579 13.1857 3 12.7715 3C12.3573 3 12.0215 3.33579 12.0215 3.75C12.0215 4.16421 12.3573 4.5 12.7715 4.5Z" fill="white"/>
</svg>
