<svg width="17" height="14" viewBox="0 0 17 14" fill="none" xmlns="http://www.w3.org/2000/svg">
<path d="M8.18182 10.0708C7.65352 10.0708 7.12521 9.89747 6.67457 9.54629L0 4.35627V11.6048C0 12.4518 0.686825 13.1389 1.53409 13.1389H14.8295C15.6768 13.1389 16.3636 12.4521 16.3636 11.6048V4.35627L9.69034 9.54981C9.2397 9.89817 8.70916 10.0708 8.18182 10.0708ZM0.520632 3.46458L7.30259 8.74121C7.82003 9.14391 8.54489 9.14391 9.06232 8.74121L15.8443 3.46458C16.1431 3.2089 16.3636 2.81578 16.3636 2.4003C16.3636 1.55304 15.6765 0.866211 14.8295 0.866211H1.53409C0.686825 0.866211 0 1.55304 0 2.4003C0 2.81578 0.192081 3.2089 0.520632 3.46458Z" fill="white"/>
</svg>
