<svg width="9" height="6" viewBox="0 0 9 6" fill="none" xmlns="http://www.w3.org/2000/svg">
<path d="M3.5656 5.01269L0.151883 1.599C0.104794 1.55191 0.0677083 1.49933 0.040625 1.44127C0.0135417 1.38318 0 1.32095 0 1.25458C0 1.12184 0.0448865 1.00651 0.134659 0.908593C0.224413 0.810677 0.342721 0.761719 0.489585 0.761719H7.68119C7.82805 0.761719 7.94636 0.811147 8.03611 0.910001C8.12588 1.00887 8.17077 1.12421 8.17077 1.25602C8.17077 1.28899 8.12007 1.40339 8.01867 1.59922L4.60517 5.01272C4.5267 5.09119 4.44558 5.14848 4.36182 5.18459C4.27805 5.2207 4.1859 5.23876 4.08539 5.23876C3.98487 5.23876 3.89272 5.2207 3.80895 5.18459C3.72519 5.14848 3.64407 5.09118 3.5656 5.01269Z" fill="#333236"/>
</svg>
